<?xml version="1.0" encoding="UTF-8" standalone="no"?>
<svg
   height="16px"
   viewBox="0 0 16 16"
   width="16px"
   version="1.1"
   id="svg9322"
   sodipodi:docname="xsi-applications-other-symbolic.svg"
   inkscape:version="1.2.2 (b0a8486541, 2022-12-01)"
   xmlns:inkscape="http://www.inkscape.org/namespaces/inkscape"
   xmlns:sodipodi="http://sodipodi.sourceforge.net/DTD/sodipodi-0.dtd"
   xmlns="http://www.w3.org/2000/svg"
   xmlns:svg="http://www.w3.org/2000/svg">
  <defs
     id="defs9326" />
  <sodipodi:namedview
     id="namedview9324"
     pagecolor="#ffffff"
     bordercolor="#666666"
     borderopacity="1.0"
     inkscape:showpageshadow="2"
     inkscape:pageopacity="0.0"
     inkscape:pagecheckerboard="0"
     inkscape:deskcolor="#d1d1d1"
     showgrid="false"
     inkscape:zoom="64.1875"
     inkscape:cx="5.6553067"
     inkscape:cy="7.9922103"
     inkscape:window-width="2560"
     inkscape:window-height="1348"
     inkscape:window-x="0"
     inkscape:window-y="0"
     inkscape:window-maximized="1"
     inkscape:current-layer="svg9322" />
  <g
     id="SVGRepo_bgCarrier"
     stroke-width="0"
     transform="translate(1.4099318,3.0146056)"
     style="fill:#000000;fill-opacity:1" />
  <g
     id="SVGRepo_tracerCarrier"
     stroke-linecap="round"
     stroke-linejoin="round"
     transform="translate(1.4099318,3.0146056)"
     style="fill:#000000;fill-opacity:1" />
  <g
     id="SVGRepo_iconCarrier"
     style="fill:#2e3436;fill-opacity:1">
    <path
       fill="#000000"
       fill-rule="evenodd"
       d="M 2,9 H 6 C 6.5128314,9 6.9355065,9.3860443 6.9932722,9.8833798 L 7,10 v 4 c 0,0.51285 -0.3860443,0.935509 -0.8833797,0.993273 L 6,15 H 2 C 1.4871686,15 1.0644935,14.613973 1.0067278,14.116624 L 1,14 V 10 C 1,9.4871686 1.3860443,9.0644935 1.8833797,9.0067278 L 2,9 h 4 z m 12,0 c 0.5523,0 1,0.44772 1,1 v 4 c 0,0.5523 -0.4477,1 -1,1 H 10 C 9.44772,15 9,14.5523 9,14 V 10 C 9,9.44772 9.44772,9 10,9 Z M 5,11 H 3 v 2 H 5 Z M 6,1 C 6.55228,1 7,1.44772 7,2 V 6 C 7,6.55228 6.55228,7 6,7 H 2 C 1.44772,7 1,6.55228 1,6 V 2 C 1,1.44772 1.44772,1 2,1 Z m 8,0 c 0.5523,0 1,0.44772 1,1 v 4 c 0,0.55228 -0.4477,1 -1,1 H 10 C 9.44772,7 9,6.55228 9,6 V 2 C 9,1.44772 9.44772,1 10,1 Z M 5,3 H 3 v 2 h 2 z m 8,0 h -2 v 2 h 2 z"
       id="path9447"
       style="fill:#2e3436;fill-opacity:1" />
  </g>
</svg>
