<?xml version="1.0" encoding="UTF-8" standalone="no"?>
<svg
   height="16px"
   viewBox="0 0 16 16"
   width="16px"
   version="1.1"
   id="svg445"
   sodipodi:docname="xsi-applications-preferences-symbolic.svg"
   inkscape:version="1.2.2 (b0a8486541, 2022-12-01)"
   xmlns:inkscape="http://www.inkscape.org/namespaces/inkscape"
   xmlns:sodipodi="http://sodipodi.sourceforge.net/DTD/sodipodi-0.dtd"
   xmlns="http://www.w3.org/2000/svg"
   xmlns:svg="http://www.w3.org/2000/svg">
  <defs
     id="defs449" />
  <sodipodi:namedview
     id="namedview447"
     pagecolor="#ffffff"
     bordercolor="#666666"
     borderopacity="1.0"
     inkscape:showpageshadow="2"
     inkscape:pageopacity="0.0"
     inkscape:pagecheckerboard="0"
     inkscape:deskcolor="#d1d1d1"
     showgrid="false"
     inkscape:zoom="64.1875"
     inkscape:cx="5.6553067"
     inkscape:cy="8.0077897"
     inkscape:window-width="2560"
     inkscape:window-height="1348"
     inkscape:window-x="0"
     inkscape:window-y="0"
     inkscape:window-maximized="1"
     inkscape:current-layer="g5637" />
  <g
     id="g5637"
     transform="translate(0.5,0.49999502)">
    <g
       id="path307"
       style="fill:#2e3436;fill-opacity:1">
      <path
         style="color:#000000;fill:#2e3436;stroke-width:1.76471;stroke-linecap:round;-inkscape-stroke:none;fill-opacity:1"
         d="M 2.20588,0.88235497 V 14.117655"
         id="path7137" />
      <path
         style="color:#000000;fill:#2e3436;stroke-linecap:round;-inkscape-stroke:none;fill-opacity:1"
         d="M 2.2050781,0 A 0.88235497,0.88235497 0 0 0 1.3242187,0.8828125 V 14.117188 A 0.88235497,0.88235497 0 0 0 2.2050781,15 0.88235497,0.88235497 0 0 0 3.0878906,14.117188 V 0.8828125 A 0.88235497,0.88235497 0 0 0 2.2050781,0 Z"
         id="path7139" />
    </g>
    <g
       id="path309"
       style="fill:#2e3436;fill-opacity:1">
      <path
         style="color:#000000;fill:#2e3436;stroke-width:1.76471;stroke-linecap:round;-inkscape-stroke:none;fill-opacity:1"
         d="M 7.5,0.88235497 V 14.117655"
         id="path7131" />
      <path
         style="color:#000000;fill:#2e3436;stroke-linecap:round;-inkscape-stroke:none;fill-opacity:1"
         d="M 7.5,0 A 0.88235497,0.88235497 0 0 0 6.6171875,0.8828125 V 14.117188 A 0.88235497,0.88235497 0 0 0 7.5,15 0.88235497,0.88235497 0 0 0 8.3828125,14.117188 V 0.8828125 A 0.88235497,0.88235497 0 0 0 7.5,0 Z"
         id="path7133" />
    </g>
    <g
       id="path311"
       style="fill:#2e3436;fill-opacity:1">
      <path
         style="color:#000000;fill:#2e3436;stroke-width:1.76471;stroke-linecap:round;-inkscape-stroke:none;fill-opacity:1"
         d="M 12.79412,0.88235497 V 14.117655"
         id="path6387" />
      <path
         style="color:#000000;fill:#2e3436;stroke-linecap:round;-inkscape-stroke:none;fill-opacity:1"
         d="M 12.794922,0 A 0.88235497,0.88235497 0 0 0 11.912109,0.8828125 V 14.117188 A 0.88235497,0.88235497 0 0 0 12.794922,15 0.88235497,0.88235497 0 0 0 13.675781,14.117188 V 0.8828125 A 0.88235497,0.88235497 0 0 0 12.794922,0 Z"
         id="path6389" />
    </g>
    <path
       d="m 4.41176,10.588235 c 0,1.21827 -0.9876,2.20589 -2.20588,2.20589 C 0.98761,12.794125 0,11.806505 0,10.588235 c 0,-1.21826 0.98761,-2.20588 2.20588,-2.20588 1.21828,0 2.20588,0.98762 2.20588,2.20588 z"
       fill="#000000"
       id="path313"
       style="fill:#2e3436;fill-opacity:1;stroke-width:0.882352" />
    <path
       d="m 9.70588,4.411765 c 0,1.21827 -0.98762,2.20589 -2.20588,2.20589 -1.21826,0 -2.20588,-0.98762 -2.20588,-2.20589 0,-1.21827 0.98762,-2.20588 2.20588,-2.20588 1.21826,0 2.20588,0.98761 2.20588,2.20588 z"
       fill="#000000"
       id="path315"
       style="fill:#2e3436;fill-opacity:1;stroke-width:0.882352" />
    <path
       d="m 15,10.588235 c 0,1.21827 -0.98762,2.20589 -2.20588,2.20589 -1.21827,0 -2.20588,-0.98762 -2.20588,-2.20589 0,-1.21826 0.98761,-2.20588 2.20588,-2.20588 1.21826,0 2.20588,0.98762 2.20588,2.20588 z"
       fill="#000000"
       id="path317"
       style="fill:#2e3436;fill-opacity:1;stroke-width:0.882352" />
  </g>
</svg>
