<?xml version="1.0" encoding="UTF-8" standalone="no"?>
<svg
   height="16px"
   viewBox="0 0 16 16"
   width="16px"
   version="1.1"
   id="svg7522"
   sodipodi:docname="xsi-applications-internet-symbolic.svg"
   inkscape:version="1.2.2 (b0a8486541, 2022-12-01)"
   xmlns:inkscape="http://www.inkscape.org/namespaces/inkscape"
   xmlns:sodipodi="http://sodipodi.sourceforge.net/DTD/sodipodi-0.dtd"
   xmlns="http://www.w3.org/2000/svg"
   xmlns:svg="http://www.w3.org/2000/svg">
  <defs
     id="defs7526" />
  <sodipodi:namedview
     id="namedview7524"
     pagecolor="#ffffff"
     bordercolor="#666666"
     borderopacity="1.0"
     inkscape:showpageshadow="2"
     inkscape:pageopacity="0.0"
     inkscape:pagecheckerboard="0"
     inkscape:deskcolor="#d1d1d1"
     showgrid="false"
     inkscape:zoom="64.1875"
     inkscape:cx="5.6553067"
     inkscape:cy="7.9922103"
     inkscape:window-width="2560"
     inkscape:window-height="1348"
     inkscape:window-x="0"
     inkscape:window-y="0"
     inkscape:window-maximized="1"
     inkscape:current-layer="g7651" />
  <g
     id="SVGRepo_bgCarrier"
     stroke-width="0"
     transform="matrix(0.02929687,0,0,0.02929734,-0.07142857,-0.07154565)" />
  <g
     id="SVGRepo_tracerCarrier"
     stroke-linecap="round"
     stroke-linejoin="round"
     transform="matrix(0.02929687,0,0,0.02929734,-0.07142857,-0.07154565)" />
  <g
     id="SVGRepo_iconCarrier"
     transform="matrix(0.02929687,0,0,0.02929734,0.50000125,0.49988097)"> <style
   type="text/css"
   id="style7647"> .st0{fill:#000000;} </style>
 <g
   id="g7651"> <path
   class="st0"
   d="m 511.878,247.973 -21.488,0.672 21.488,-0.68 C 509.71,178.746 480.146,116.617 434.002,72.016 387.882,27.377 324.93,-0.004 256.13,0.004 c -2.718,0 -5.443,0.046 -8.176,0.13 h 0.016 C 178.743,2.294 116.622,31.858 72.013,78.002 27.382,124.122 0,187.074 0,255.874 c 0,2.709 0.046,5.435 0.13,8.16 2.168,69.22 31.732,131.347 77.875,175.949 46.113,44.632 109.065,72.02 177.865,72.013 2.694,0 5.42,-0.038 8.16,-0.13 69.227,-2.16 131.355,-31.724 175.957,-77.876 44.64,-46.121 72.021,-109.065 72.013,-177.857 0,-2.717 -0.038,-5.434 -0.122,-8.16 z M 102.921,107.894 c 19.64,-20.29 43.274,-36.647 69.67,-47.891 -10.961,15.77 -20.336,34.426 -28.045,55.304 H 96.089 c 2.214,-2.528 4.496,-5.001 6.832,-7.413 z m -27.229,34.77 h 60.112 c -8.282,30.212 -13.327,63.906 -14.365,99.661 H 43.472 c 2.298,-36.411 13.771,-70.387 32.22,-99.661 z m -0.045,226.68 C 57.296,340.223 45.839,306.3 43.503,269.683 h 78.028 c 1.046,35.732 5.954,69.471 14.236,99.661 z m 32.251,39.739 c -4.091,-3.962 -7.984,-8.114 -11.748,-12.381 h 48.442 c 4.099,11.091 8.579,21.67 13.594,31.396 4.405,8.518 9.16,16.487 14.252,23.847 -24.068,-10.291 -45.915,-24.863 -64.54,-42.862 z m 134.431,59.441 c -5.931,-0.374 -11.809,-0.946 -17.603,-1.801 -2.404,-1.573 -4.809,-3.282 -7.213,-5.236 -16.381,-13.313 -31.778,-35.831 -43.694,-64.784 h 68.51 z m 0,-99.18 h -78.15 c -8.794,-29.411 -14.267,-63.365 -15.381,-99.661 h 93.531 z m 0,-127.019 h -93.448 c 1.115,-36.327 6.618,-70.235 15.42,-99.661 h 78.028 z m 0,-127.019 h -68.433 c 2.71,-6.588 5.542,-12.954 8.595,-18.84 10.298,-19.969 22.404,-35.647 35.022,-45.945 2.366,-1.924 4.732,-3.604 7.099,-5.16 5.832,-0.862 11.74,-1.48 17.717,-1.863 z m 194.04,27.358 c 18.351,29.128 29.8,63.044 32.136,99.661 h -78.02 c -1.046,-35.732 -5.954,-69.471 -14.236,-99.661 z M 404.11,102.917 c 4.092,3.961 7.985,8.114 11.756,12.389 h -48.441 c -4.099,-11.092 -8.58,-21.672 -13.596,-31.396 -4.412,-8.527 -9.167,-16.496 -14.267,-23.847 24.068,10.29 45.922,24.855 64.548,42.854 z M 269.687,43.476 c 5.924,0.374 11.801,0.954 17.587,1.802 2.412,1.58 4.824,3.282 7.229,5.244 16.381,13.32 31.778,35.823 43.686,64.784 h -68.502 z m 0,99.188 h 78.15 c 8.794,29.411 14.267,63.364 15.381,99.661 h -93.531 z m 0,127.019 h 93.448 c -1.114,36.327 -6.618,70.242 -15.42,99.661 h -78.028 z m 59.838,145.851 c -10.297,19.976 -22.412,35.655 -35.022,45.953 -2.359,1.924 -4.725,3.595 -7.091,5.152 -5.832,0.863 -11.74,1.481 -17.725,1.862 v -71.799 h 68.426 c -2.711,6.587 -5.543,12.946 -8.588,18.832 z m 79.562,-11.428 c -19.64,20.29 -43.266,36.64 -69.655,47.884 10.962,-15.771 20.328,-34.419 28.037,-55.288 h 48.449 c -2.22,2.518 -4.495,4.992 -6.831,7.404 z m 27.221,-34.762 h -60.105 c 8.29,-30.206 13.336,-63.906 14.374,-99.661 h 77.952 c -2.299,36.403 -13.772,70.387 -32.221,99.661 z"
   id="path7649"
   style="fill:#222222;fill-opacity:1" />
 </g>
 </g>
</svg>
