<?xml version="1.0" encoding="UTF-8" standalone="no"?>
<svg
   height="16px"
   viewBox="0 0 16 16"
   width="16px"
   version="1.1"
   id="svg4"
   sodipodi:docname="xsi-pci-card-symbolic.svg"
   inkscape:version="1.2.2 (b0a8486541, 2022-12-01)"
   xmlns:inkscape="http://www.inkscape.org/namespaces/inkscape"
   xmlns:sodipodi="http://sodipodi.sourceforge.net/DTD/sodipodi-0.dtd"
   xmlns="http://www.w3.org/2000/svg"
   xmlns:svg="http://www.w3.org/2000/svg">
  <defs
     id="defs8" />
  <sodipodi:namedview
     id="namedview6"
     pagecolor="#ffffff"
     bordercolor="#666666"
     borderopacity="1.0"
     inkscape:showpageshadow="2"
     inkscape:pageopacity="0.0"
     inkscape:pagecheckerboard="0"
     inkscape:deskcolor="#d1d1d1"
     showgrid="false"
     inkscape:zoom="64.1875"
     inkscape:cx="5.1567673"
     inkscape:cy="7.9922103"
     inkscape:window-width="2560"
     inkscape:window-height="1348"
     inkscape:window-x="2560"
     inkscape:window-y="0"
     inkscape:window-maximized="1"
     inkscape:current-layer="svg4" />
  <path
     d="m 13,0 c -0.550781,0 -1,0.449219 -1,1 v 14 h 2 v -3 h 2 V 9 H 14 V 8 h 2 V 5 H 14 V 2 h 2 V 0 Z M 3,2 C 1.667969,2 0.726562,2.8125 0.355469,3.550781 -0.015625,4.292969 0,5 0,5 v 6 c 0,0 -0.015625,0.707031 0.355469,1.449219 C 0.722656,13.1875 1.667969,14 3,14 h 8 V 12 H 3 C 2.332031,12 2.273438,11.8125 2.144531,11.550781 2.015625,11.292969 2,11 2,11 V 5 C 2,5 2.015625,4.707031 2.144531,4.449219 2.273438,4.1875 2.332031,4 3,4 h 8 V 2 Z m 11,4 h 1 v 1 h -1 z m 0,4 h 1 v 1 h -1 z"
     fill="#2e3434"
     id="path2"
     sodipodi:nodetypes="sscccccccccccccssccccsccsccccsccscccccccccc" />
</svg>
