<?xml version="1.0" encoding="UTF-8" standalone="no"?>
<svg
   height="16px"
   viewBox="0 0 16 16"
   width="16px"
   version="1.1"
   id="svg8"
   sodipodi:docname="xsi-applications-games-symbolic.svg"
   inkscape:version="1.2.2 (b0a8486541, 2022-12-01)"
   xmlns:inkscape="http://www.inkscape.org/namespaces/inkscape"
   xmlns:sodipodi="http://sodipodi.sourceforge.net/DTD/sodipodi-0.dtd"
   xmlns="http://www.w3.org/2000/svg"
   xmlns:svg="http://www.w3.org/2000/svg">
  <defs
     id="defs12" />
  <sodipodi:namedview
     id="namedview10"
     pagecolor="#ffffff"
     bordercolor="#666666"
     borderopacity="1.0"
     inkscape:showpageshadow="2"
     inkscape:pageopacity="0.0"
     inkscape:pagecheckerboard="0"
     inkscape:deskcolor="#d1d1d1"
     showgrid="false"
     inkscape:zoom="64.1875"
     inkscape:cx="5.6553067"
     inkscape:cy="8.0077897"
     inkscape:window-width="2560"
     inkscape:window-height="1348"
     inkscape:window-x="0"
     inkscape:window-y="0"
     inkscape:window-maximized="1"
     inkscape:current-layer="g6" />
  <g
     fill="#2e3436"
     id="g6">
    <path
       d="m 0,7.4206851 v 2.8571439 c 0,1.575892 1.2812503,2.857142 2.8571429,2.857142 h 0.5714286 c 1.2633932,0 2.2857144,-1.022321 2.2857144,-2.285714 0,-1.2633929 1.0223211,-2.2857139 2.2857143,-2.2857139 1.2633932,0 2.2857148,1.022321 2.2857148,2.2857139 0.15625,1.419644 1.437499,2.441965 2.857143,2.285714 C 14.71875,13.134971 16,11.858185 16,10.277829 V 7.4206851 C 16,4.8938995 13.955359,2.8492571 11.428572,2.8492571 H 4.5714287 C 2.0446424,2.8492571 0,4.8938995 0,7.4206851 Z M 3.7142859,5.1349714 h 0.5714285 c 0.1562503,0 0.2857143,0.129464 0.2857143,0.2857144 v 0.8571433 h 0.8571429 c 0.1562503,0 0.2857143,0.129463 0.2857143,0.285714 v 0.571429 c 0,0.160714 -0.129464,0.285713 -0.2857143,0.285713 H 4.5714287 v 0.857144 c 0,0.160714 -0.129464,0.285714 -0.2857143,0.285714 H 3.7142859 c -0.1607144,0 -0.2857144,-0.125 -0.2857144,-0.285714 V 7.4206851 H 2.5714287 c -0.1607144,0 -0.2857144,-0.124999 -0.2857144,-0.285713 v -0.571429 c 0,-0.156251 0.125,-0.285714 0.2857144,-0.285714 H 3.4285715 V 5.4206858 c 0,-0.1562504 0.125,-0.2857144 0.2857144,-0.2857144 z m 7.1428561,0.8571427 c 0.473215,0 0.857144,0.383929 0.857144,0.857144 0,0.473213 -0.383929,0.857141 -0.857144,0.857141 C 10.383929,7.7063991 10,7.3224711 10,6.8492581 c 0,-0.473215 0.383929,-0.857144 0.857142,-0.857144 z m 2.285716,1.142858 c 0.473213,0 0.857142,0.383929 0.857142,0.857143 0,0.473213 -0.383929,0.857142 -0.857142,0.857142 -0.473214,0 -0.857143,-0.383929 -0.857143,-0.857142 0,-0.473214 0.383929,-0.857143 0.857143,-0.857143 z m 0,0"
       id="path2"
       style="stroke-width:1.14286" />
  </g>
</svg>
